<svg xmlns="http://www.w3.org/2000/svg" xmlns:xlink="http://www.w3.org/1999/xlink" version="1.1" x="0px" y="0px" viewBox="0 0 100 125" enable-background="new 0 0 100 100" xml:space="preserve"><rect x="29.258" y="45.648" fill="#000000" width="41.483" height="8.704"/><path fill="#000000" d="M26.905,66.342c0,2.342-1.899,4.242-4.242,4.242l0,0c-2.344,0-4.242-1.9-4.242-4.242V33.659  c0-2.343,1.898-4.242,4.242-4.242l0,0c2.343,0,4.242,1.899,4.242,4.242V66.342z"/><path fill="#000000" d="M81.579,66.342c0,2.342-1.899,4.242-4.242,4.242l0,0c-2.344,0-4.243-1.9-4.243-4.242V33.659  c0-2.343,1.899-4.242,4.243-4.242l0,0c2.343,0,4.242,1.899,4.242,4.242V66.342z"/><path fill="#000000" d="M16.067,60.93c0,2.344-1.898,4.244-4.242,4.244l0,0c-2.344,0-4.242-1.9-4.242-4.244V39.07  c0-2.344,1.898-4.243,4.242-4.243l0,0c2.344,0,4.242,1.899,4.242,4.243V60.93z"/><path fill="#000000" d="M92.417,60.93c0,2.344-1.9,4.244-4.243,4.244l0,0c-2.343,0-4.242-1.9-4.242-4.244V39.07  c0-2.344,1.899-4.243,4.242-4.243l0,0c2.343,0,4.243,1.899,4.243,4.243V60.93z"/><!-- <text x="0" y="115" fill="#000000" font-size="5px" font-weight="bold" font-family="'Helvetica Neue', Helvetica, Arial-Unicode, Arial, Sans-serif">Created by Bakunetsu Kaito</text><text x="0" y="120" fill="#000000" font-size="5px" font-weight="bold" font-family="'Helvetica Neue', Helvetica, Arial-Unicode, Arial, Sans-serif">from the Noun Project</text> --></svg>