<svg xmlns="http://www.w3.org/2000/svg" xmlns:xlink="http://www.w3.org/1999/xlink" version="1.1" x="0px" y="0px" viewBox="0 0 116.808 311.9475" style="enable-background:new 0 0 116.808 249.558;" xml:space="preserve"><g><path d="M109.191,134.005c-4.9-20.912-12.882-40.996-23.67-59.605c0.895-4.105,1.748-9.66,1.761-16.025   c-0.002-5.923-0.753-12.566-3.063-19.31c-3.408-10.11-10.639-20.384-23.046-27.563C48.776,4.284,31.634,0.006,8,0   C3.582,0,0,3.581,0,8c0,4.418,3.582,8.002,8,8.002c14.482-0.005,25.675,1.766,34.195,4.532   c12.798,4.199,19.573,10.325,23.679,16.89c4.072,6.581,5.41,14.087,5.41,20.95c0,1.467-0.066,2.889-0.171,4.26   c-0.543,0.177-1.062,0.425-1.539,0.764c-9.642,6.719-19.281,13.438-28.922,20.158c-1.033,0.403-2,1.021-2.823,1.868   c-0.283,0.298-3.73,3.853-7.274,9.721c-3.51,5.86-7.272,14.133-7.307,24.05c-0.03,6.766,1.938,14.241,6.763,21.143   c4.814,6.926,12.255,13.236,22.858,18.76c0.947,0.493,1.948,0.768,2.949,0.862c-2.928,15-10.133,38.521-27.541,71.221   c-3.246,6.092-0.937,13.661,5.155,16.907c1.873,0.998,3.885,1.471,5.868,1.471c4.471,0.001,8.793-2.403,11.042-6.625   c18.586-34.882,26.709-60.972,30.116-78.717c2.752-0.293,5.503-0.586,8.254-0.879c1.51,15.491,3.097,39.83,3.097,73.719   c0,6.904,5.597,12.501,12.501,12.501c6.902,0,12.5-5.597,12.5-12.501c0-67.004-6.069-98.484-6.233-99.317   C110.31,136.39,109.831,135.14,109.191,134.005z M43.151,131.213c-2.949-4.298-3.878-8.14-3.906-12.019   c-0.029-4.449,1.474-9.029,3.418-12.907c6.185,11.639,10.949,23.974,14.199,36.738C49.976,138.982,45.716,134.91,43.151,131.213z"/><ellipse transform="matrix(0.9746 -0.2239 0.2239 0.9746 -10.4593 10.3035)" cx="40.2" cy="51.269" rx="22.495" ry="22.495"/></g><!--<text x="0" y="264.558" fill="#000000" font-size="5px" font-weight="bold" font-family="'Helvetica Neue', Helvetica, Arial-Unicode, Arial, Sans-serif">Created by Gan Khoon Lay</text><text x="0" y="269.558" fill="#000000" font-size="5px" font-weight="bold" font-family="'Helvetica Neue', Helvetica, Arial-Unicode, Arial, Sans-serif">from the Noun Project</text>--></svg>