<svg fill="#FFF" xmlns="http://www.w3.org/2000/svg" xmlns:xlink="http://www.w3.org/1999/xlink" version="1.1" x="0px" y="0px" viewBox="0 0 107.658 284.16125" style="enable-background:new 0 0 107.658 227.329;" xml:space="preserve"><g><ellipse transform="matrix(0.9986 -0.0533 0.0533 0.9986 -1.0774 4.5684)" cx="85.163" cy="22.496" rx="22.496" ry="22.495"/><path d="M75.816,124.253c0.005-0.643-0.046-1.275-0.136-1.895c-0.014-0.619-0.035-1.257-0.072-1.936   c-2.221-17.203,2.738-37.254,5.547-51.237c2.92-9.938-0.775-21.868-9.301-24.038c-6.788-1.727-16.025,0.826-22.088,9.309   c7.703-3.24,14.047-3.857,16.307-3.968l0.033-0.002l0.134-0.006l0.251-0.002c5.376,0,9.859,4.376,9.992,9.754   c0.134,5.496-4.215,10.079-9.7,10.24l-0.372,0.032c-0.408,0.039-1.08,0.121-1.975,0.284c-1.664,0.302-4.272,0.935-7.247,2.221   c-7.79,3.424-13.65,9.049-17.901,17.191c-0.025,0.049-0.047,0.103-0.072,0.151c-0.786,8.201-0.527,16.72,0.652,27.31   c0.946,5.002,2.662,8.613,4.852,11.217c-0.278,0.322-0.561,0.643-0.849,0.961c-2.39,2.672-5.104,5.125-7.501,6.633   c-1.318,0.841-2.468,1.366-3.416,1.667c-0.566-0.785-1.292-1.93-1.967-3.279c-1.128-2.176-2.21-4.834-3.134-7.421   c-1.551,0.985-3.389,1.558-5.362,1.558c-0.139,0-0.28-0.004-0.424-0.01c-2.688-0.117-5.151-1.265-6.957-3.235   c-1.805-1.968-2.735-4.523-2.618-7.192c0.173-4,0.545-7.838,1.079-11.539c-1.235-0.105-2.507-0.029-3.781,0.255   c-6.74,1.497-10.988,8.175-9.488,14.914H0.299c0.097,0.377,1.907,8.678,5.555,17.729c1.868,4.551,4.106,9.301,7.503,13.764   c1.728,2.224,3.771,4.431,6.617,6.345c2.801,1.894,6.684,3.466,11.032,3.452c7.642-0.023,14.101-2.857,19.266-6.223   c0.101-0.067,0.201-0.133,0.302-0.201l-0.424,57.682c-0.052,6.903,5.505,12.54,12.408,12.593c0.03,0,0.063,0,0.093,0   c6.861,0.001,12.447-5.536,12.5-12.408L75.816,124.253z"/><path d="M22.135,126.988c0.119,0.005,0.238,0.008,0.356,0.008c1.744,0,3.362-0.57,4.685-1.531c1.906-1.384,3.191-3.587,3.302-6.122   c0.586-13.426,3.408-23.062,7.037-30.067c0.74-1.418,1.516-2.725,2.315-3.948c5.104-7.805,11.272-11.827,16.566-14.153   c3.052-1.319,5.786-2.008,7.683-2.354c0.948-0.173,1.686-0.262,2.143-0.306c0.228-0.022,0.387-0.034,0.467-0.038l-0.001-0.002   c4.413-0.11,7.903-3.778,7.796-8.191c-0.108-4.417-3.777-7.912-8.193-7.802h-0.002c-0.715,0.042-8.665,0.254-18.41,5.012   c-2.267,1.107-4.633,2.46-7.026,4.115C34.542,65.986,28.153,72.551,23.31,81.91c-3.593,6.926-6.333,15.335-7.784,25.449   c-0.51,3.55-0.863,7.306-1.035,11.288C14.297,123.061,17.72,126.795,22.135,126.988z"/></g><!-- <text x="0" y="242.329" fill="#000000" font-size="5px" font-weight="bold" font-family="'Helvetica Neue', Helvetica, Arial-Unicode, Arial, Sans-serif">Created by Gan Khoon Lay</text><text x="0" y="247.329" fill="#000000" font-size="5px" font-weight="bold" font-family="'Helvetica Neue', Helvetica, Arial-Unicode, Arial, Sans-serif">from the Noun Project</text> --></svg>